<svg id="Layer_1" data-name="Layer 1" xmlns="http://www.w3.org/2000/svg" viewBox="0 0 596.43 800"><defs><style>.cls-1{fill:#231f20;}.cls-2{fill:#fff;}.cls-3{fill:none;stroke:#231f20;stroke-miterlimit:10;}</style></defs><title>melany-md_glyph</title><path class="cls-1" d="M163.49,147.62s-13.92-22.81-28.57-22.09-28.08,15.13-20.4,34.81,11.76,21.13,26.41,85.94c6.24,31.45,25,84.5,18.72,107.55-5.28,21.84-21.76,49-21.76,49s-14.73,20.64,7.84,37.69,30.48,4.8,59.53,4.8,144,.48,144,.48,62.65-1.44,70.81,6,22.81,11,32.65-2.4,25-8.88,27.37-24-.48-24-3.61-36.48-4.32-49.46-14.16-133-12.48-101.06-8.16-134.19-43-54.25-49.93-3.12,2.4,54.49-31,111.87-60.49,113.06-79.94,87.14-77.3-97.46-77.3-97.46-29.52-31.93-52.57-72.5"/><path class="cls-2" d="M204.78,389.36s1.92,22.32,40.81,16.56c39.85-1.68,39.61,3.36,75.38,2.4s68.65.12,68.65.12,30.49,1.56,46.1-5.4,1-142.83,1-142.83-4.57-62.42-9.13-68.66-13.92,16.56-13.92,16.56l-47.77,93.15S344,338.94,335.37,350.47s-26.16,41-46.57,22.08c-17.52-24.48-23-34.33-41.53-62.65s-58.57-78.26-58.57-78.26-30.25-38.41-26.41-8.88,35.05,88.1,42.49,166.6"/><path class="cls-3" d="M204.78,389.36s1.92,22.32,40.81,16.56c39.85-1.68,39.61,3.36,75.38,2.4s68.65.12,68.65.12,30.49,1.56,46.1-5.4,1-142.83,1-142.83-4.57-62.42-9.13-68.66-13.92,16.56-13.92,16.56l-47.77,93.15S344,338.94,335.37,350.47s-26.16,41-46.57,22.08c-17.52-24.48-23-34.33-41.53-62.65s-58.57-78.26-58.57-78.26-30.25-38.41-26.41-8.88S197.34,310.86,204.78,389.36Z"/><path class="cls-1" d="M124.36,549.47s-20.4-31,3.12-52.57,41.53-10.8,56.9-5.76,20.4,7.2,55,6.72,63.13,2.64,76.82,2.64,60-5.28,79.46-5.76,27.84,1,52.33-.48,44,3.12,33.06,26.17-11.94,26.16-15.3,31.44-5.76,5-14.4,31-35.77,80.66-92.66,106.59-124.11,35.76-169.72-4.09S133.24,585,133.24,585s-3.12-32.41-8.88-35.53"/><path class="cls-2" d="M157.25,571.08S145,525,195.18,532c53.53.48,148.83,1.69,177.64-.72s55.69-5.52,55.69,2.88,4.8,29.77-12,57.85-49,59.78-87.38,75.62-78.5,25.45-124.35-6.72c-39.37-40.33-47.53-89.78-47.53-89.78"/><path class="cls-3" d="M157.25,571.08S145,525,195.18,532c53.53.48,148.83,1.69,177.64-.72s55.69-5.52,55.69,2.88,4.8,29.77-12,57.85-49,59.78-87.38,75.62-78.5,25.45-124.35-6.72C165.41,620.53,157.25,571.08,157.25,571.08Z"/></svg>